# xmcd
#
# Track frame offsets:
#	150
#	15373
#	28749
#	40605
#	58568
#	77031
#	85944
#	105873
#
# Disc length: 1580 seconds
#
# Revision: 0
# Processed by: cddbd v1.5.2PL0 Copyright (c) Steve Scherf et al.
# Submitted via: EasyCDDAExtractor 12.1.0.1
#
DISCID=4b062a08
DTITLE=Los Cuchillos - Isla Macabro
DYEAR=2014
DGENRE=Surf
TTITLE0=Isla Macabro
TTITLE1=Selvatica
TTITLE2=Invasion Cavernicola
TTITLE3=Vodoo Macabro
TTITLE4=Momias De Saturno
TTITLE5=Tarantino
TTITLE6=Volcan
TTITLE7=Noche De Walpurgis
EXTD=
EXTT0=
EXTT1=
EXTT2=
EXTT3=
EXTT4=
EXTT5=
EXTT6=
EXTT7=
PLAYORDER=
